<svg width="38" height="38" viewBox="0 0 38 38" fill="none" xmlns="http://www.w3.org/2000/svg">
<circle cx="19" cy="19" r="19" fill="#F8F9FA"/>
<path d="M23.125 14.25H20.3125L20.0781 13.8281C19.9844 13.6406 19.7969 13.5 19.5859 13.5H16.8906C16.6797 13.5 16.4922 13.6406 16.3984 13.8281L16.1875 14.25H13.375C13.1641 14.25 13 14.4375 13 14.625V15.375C13 15.5859 13.1641 15.75 13.375 15.75H23.125C23.3125 15.75 23.5 15.5859 23.5 15.375V14.625C23.5 14.4375 23.3125 14.25 23.125 14.25ZM14.2422 24.4453C14.2656 25.0547 14.7578 25.5 15.3672 25.5H21.1094C21.7188 25.5 22.2109 25.0547 22.2344 24.4453L22.75 16.5H13.75L14.2422 24.4453Z" fill="#868E96"/>
</svg>
