<svg width="11" height="12" viewBox="0 0 11 13" fill="none" xmlns="http://www.w3.org/2000/svg">
<path d="M1.616 12.128C1.34933 12.128 1.13067 12.0587 0.96 11.92C0.789333 11.7707 0.688 11.5893 0.656 11.376C0.634667 11.152 0.709333 10.928 0.88 10.704L4.208 6.256L1.056 2.032C0.885333 1.79733 0.810667 1.57333 0.832 1.36C0.853333 1.136 0.949333 0.954666 1.12 0.815999C1.29067 0.666666 1.504 0.591999 1.76 0.591999C2.15467 0.591999 2.512 0.810666 2.832 1.248L5.376 4.768L7.92 1.248C8.24 0.810666 8.60267 0.591999 9.008 0.591999C9.27467 0.591999 9.49333 0.661332 9.664 0.799999C9.83467 0.938666 9.93067 1.12 9.952 1.344C9.97333 1.55733 9.89333 1.78667 9.712 2.032L6.56 6.256L9.872 10.704C10.0427 10.928 10.1173 11.152 10.096 11.376C10.0747 11.5893 9.97867 11.7707 9.808 11.92C9.63733 12.0587 9.41333 12.128 9.136 12.128C8.752 12.128 8.39467 11.904 8.064 11.456L5.376 7.776L2.704 11.456C2.37333 11.904 2.01067 12.128 1.616 12.128Z" fill="white" fill-opacity="0.65"/>
</svg>
